<?xml version="1.0" standalone="no"?>
<!DOCTYPE svg PUBLIC "-//W3C//DTD SVG 20010904//EN"
 "http://www.w3.org/TR/2001/REC-SVG-20010904/DTD/svg10.dtd">
<svg version="1.0" xmlns="http://www.w3.org/2000/svg"
 width="1050.000000pt" height="1050.000000pt" viewBox="0 0 1050.000000 1050.000000"
 preserveAspectRatio="xMidYMid meet">

<g transform="translate(0.000000,1050.000000) scale(0.100000,-0.100000)"
fill="#000000" stroke="none">
<path d="M2565 9991 c-86 -40 -120 -96 -119 -196 0 -52 6 -81 22 -113 17 -32
19 -43 10 -47 -7 -2 -38 -11 -70 -19 -68 -19 -95 -48 -150 -161 -75 -154 -126
-370 -135 -575 -5 -125 -6 -125 -54 -225 -54 -109 -56 -128 -35 -238 8 -40 24
-124 36 -187 12 -63 28 -145 37 -182 l15 -66 -30 -64 c-16 -35 -37 -97 -46
-138 l-17 -75 56 -185 c31 -102 70 -233 87 -291 l31 -107 -26 -80 c-35 -109
-45 -218 -23 -260 23 -44 49 -56 91 -42 50 16 60 36 111 225 25 95 28 143 10
183 -14 34 -24 107 -72 550 l-16 144 36 71 c30 59 39 93 51 187 9 63 19 140
25 170 5 30 12 85 15 121 4 36 10 72 15 78 7 12 258 78 560 146 85 19 182 42
215 50 33 8 66 15 73 15 25 0 1 -19 -31 -25 -49 -10 -61 -23 -115 -130 -27
-55 -75 -134 -106 -175 -58 -78 -63 -94 -49 -173 5 -32 15 -44 62 -78 75 -52
233 -167 248 -179 8 -7 18 -1 33 18 32 39 22 85 -37 173 -55 84 -73 120 -73
152 0 22 64 100 222 267 140 149 168 208 126 272 -27 41 -75 56 -218 70 -170
16 -333 14 -480 -7 -63 -9 -133 -19 -156 -22 l-41 -5 -13 46 c-12 45 -12 46
56 206 38 88 74 160 79 160 6 0 30 -14 55 -31 51 -34 36 -35 295 6 240 38 240
38 255 20 18 -21 62 -19 88 5 29 28 28 34 -14 75 -40 39 -53 41 -111 21 -73
-26 -230 -35 -374 -22 l-86 8 -76 97 c-42 54 -79 105 -82 113 -4 11 10 23 47
41 74 37 98 76 98 158 0 184 -161 317 -305 250z"/>
<path d="M2582 7810 c0 -19 2 -27 5 -17 2 9 2 25 0 35 -3 9 -5 1 -5 -18z"/>
<path d="M2593 7690 c0 -30 2 -43 4 -27 2 15 2 39 0 55 -2 15 -4 2 -4 -28z"/>
<path d="M2623 7425 c0 -22 2 -30 4 -17 2 12 2 30 0 40 -3 9 -5 -1 -4 -23z"/>
<path d="M3140 6710 c-9 -6 -10 -10 -3 -10 6 0 15 5 18 10 8 12 4 12 -15 0z"/>
<path d="M2094 6455 c0 -104 2 -146 3 -92 2 54 2 139 0 190 -1 51 -3 7 -3 -98z"/>
<path d="M2896 6574 c-11 -8 -16 -14 -10 -14 13 0 39 18 34 24 -3 2 -14 -2
-24 -10z"/>
<path d="M2805 6525 c-25 -12 -26 -14 -5 -9 28 7 60 23 45 23 -5 0 -23 -6 -40
-14z"/>
<path d="M2798 6443 c6 -2 18 -2 25 0 6 3 1 5 -13 5 -14 0 -19 -2 -12 -5z"/>
<path d="M2084 6000 c0 -129 2 -182 3 -117 2 64 2 170 0 235 -1 64 -3 11 -3
-118z"/>
<path d="M3183 6145 c0 -33 2 -45 4 -27 2 18 2 45 0 60 -2 15 -4 0 -4 -33z"/>
<path d="M3503 6015 c0 -33 2 -45 4 -27 2 18 2 45 0 60 -2 15 -4 0 -4 -33z"/>
<path d="M3193 5975 c0 -27 2 -38 4 -22 2 15 2 37 0 50 -2 12 -4 0 -4 -28z"/>
<path d="M3499 5764 c0 -38 -1 -105 -1 -149 -1 -82 19 -225 32 -225 4 0 10
-18 14 -41 4 -23 13 -53 20 -68 8 -14 17 -46 22 -71 7 -43 8 -44 14 -15 4 17
1 41 -7 57 -10 21 -10 27 0 31 9 4 9 6 -1 6 -7 1 -10 6 -7 11 3 6 -1 17 -9 26
-9 8 -16 29 -16 45 0 16 -7 41 -16 54 -9 13 -13 28 -10 33 3 6 0 15 -8 21 -11
9 -14 50 -15 178 -1 92 -4 169 -6 172 -3 2 -5 -27 -6 -65z"/>
<path d="M3213 5715 c0 -22 2 -30 4 -17 2 12 2 30 0 40 -3 9 -5 -1 -4 -23z"/>
<path d="M1970 5730 l-25 -8 25 0 c14 0 34 3 45 8 l20 9 -20 -1 c-11 0 -31 -4
-45 -8z"/>
<path d="M1908 5703 c6 -2 18 -2 25 0 6 3 1 5 -13 5 -14 0 -19 -2 -12 -5z"/>
<path d="M1903 5625 c0 -27 2 -38 4 -22 2 15 2 37 0 50 -2 12 -4 0 -4 -28z"/>
<path d="M1884 5315 c0 -55 1 -76 3 -47 2 29 2 74 0 100 -2 26 -3 2 -3 -53z"/>
<path d="M3402 5270 c0 -14 2 -19 5 -12 2 6 2 18 0 25 -3 6 -5 1 -5 -13z"/>
<path d="M3616 5281 c-4 -7 -5 -15 -2 -18 9 -9 19 4 14 18 -4 11 -6 11 -12 0z"/>
<path d="M3391 5214 c0 -11 3 -14 6 -6 3 7 2 16 -1 19 -3 4 -6 -2 -5 -13z"/>
<path d="M3367 5141 c-4 -18 -7 -43 -6 -55 1 -11 5 -1 10 24 5 25 7 49 6 55
-2 5 -7 -5 -10 -24z"/>
<path d="M3614 5085 c-1 -64 0 -67 9 -32 6 24 6 51 0 70 -8 27 -9 21 -9 -38z"/>
<path d="M1874 4955 c0 -99 2 -138 3 -87 2 51 2 132 0 180 -1 48 -3 6 -3 -93z"/>
<path d="M4651 5014 c0 -11 3 -14 6 -6 3 7 2 16 -1 19 -3 4 -6 -2 -5 -13z"/>
<path d="M3592 4990 c0 -14 2 -19 5 -12 2 6 2 18 0 25 -3 6 -5 1 -5 -13z"/>
<path d="M3332 4975 c0 -16 2 -22 5 -12 2 9 2 23 0 30 -3 6 -5 -1 -5 -18z"/>
<path d="M4641 4974 c0 -11 3 -14 6 -6 3 7 2 16 -1 19 -3 4 -6 -2 -5 -13z"/>
<path d="M3582 4930 c0 -14 2 -19 5 -12 2 6 2 18 0 25 -3 6 -5 1 -5 -13z"/>
<path d="M3322 4915 c0 -16 2 -22 5 -12 2 9 2 23 0 30 -3 6 -5 -1 -5 -18z"/>
<path d="M4621 4914 c0 -11 3 -14 6 -6 3 7 2 16 -1 19 -3 4 -6 -2 -5 -13z"/>
<path d="M3300 4861 c0 -17 2 -31 4 -31 8 0 13 51 5 56 -5 3 -9 -9 -9 -25z"/>
<path d="M4612 4860 c0 -14 2 -19 5 -12 2 6 2 18 0 25 -3 6 -5 1 -5 -13z"/>
<path d="M3545 4783 c-4 -32 -11 -62 -15 -68 -4 -5 -13 -37 -18 -70 -6 -33
-14 -72 -18 -87 -4 -17 -2 -28 4 -28 5 0 12 17 16 38 3 20 8 53 11 72 3 19 6
42 7 50 0 8 4 20 9 26 10 12 24 124 17 124 -3 0 -9 -26 -13 -57z"/>
<path d="M3292 4790 c0 -19 2 -27 5 -17 2 9 2 25 0 35 -3 9 -5 1 -5 -18z"/>
<path d="M1860 4761 c0 -5 7 -12 16 -15 14 -5 15 -4 4 9 -14 17 -20 19 -20 6z"/>
<path d="M1833 4746 c-7 -8 -8 -18 -2 -27 5 -8 9 -12 10 -9 0 3 2 15 5 28 4
25 3 26 -13 8z"/>
<path d="M3282 4730 c0 -14 2 -19 5 -12 2 6 2 18 0 25 -3 6 -5 1 -5 -13z"/>
<path d="M1790 4712 c-8 -9 -14 -20 -12 -25 1 -5 -1 -6 -6 -3 -11 6 -78 -52
-75 -65 2 -4 -3 -6 -10 -4 -6 3 -30 -11 -52 -31 -42 -37 -87 -75 -145 -121
-19 -15 -37 -30 -40 -33 -3 -3 -52 -44 -110 -90 -58 -46 -107 -87 -110 -90 -3
-3 -40 -34 -83 -69 -43 -35 -92 -76 -109 -91 l-30 -28 22 -74 c29 -96 89 -275
105 -313 6 -16 22 -57 35 -90 38 -101 67 -166 149 -338 34 -71 61 -132 61
-138 0 -5 5 -9 10 -9 6 0 10 -5 10 -11 0 -12 103 -193 168 -294 54 -86 134
-206 145 -220 4 -5 35 -46 68 -90 32 -44 65 -87 72 -95 6 -9 30 -38 51 -65 22
-28 44 -54 50 -60 6 -5 31 -35 55 -65 63 -77 357 -370 372 -370 7 0 9 -3 6 -6
-8 -8 83 -80 95 -76 5 1 7 -2 4 -7 -8 -13 64 -72 78 -64 6 3 8 3 4 -2 -9 -9 8
-26 80 -81 32 -24 62 -47 68 -52 5 -5 20 -14 32 -21 11 -6 36 -25 54 -41 19
-17 39 -28 48 -25 8 4 11 3 7 -1 -8 -8 87 -77 182 -132 34 -20 73 -43 85 -50
92 -57 358 -192 376 -192 6 0 18 -7 26 -15 9 -8 24 -15 35 -15 10 0 19 -4 19
-9 0 -5 12 -12 28 -16 15 -3 41 -13 57 -20 80 -36 156 -65 173 -65 10 0 22 -4
28 -9 13 -12 160 -61 183 -61 11 0 22 -4 26 -10 5 -9 117 -35 131 -30 4 1 10
-3 13 -9 4 -6 29 -14 57 -17 27 -4 51 -11 54 -15 3 -5 39 -13 80 -19 41 -6 86
-15 99 -21 32 -13 36 -6 19 33 -9 18 -26 60 -39 93 -13 33 -27 62 -30 65 -3 3
-10 16 -14 30 -7 24 -28 75 -61 147 -8 17 -14 34 -14 38 0 4 -7 21 -15 38 -8
18 -27 66 -43 107 l-30 75 -120 90 c-66 50 -130 97 -142 105 -12 8 -46 33 -75
55 -29 22 -63 47 -75 55 -95 64 -104 76 -143 176 -48 123 -66 167 -89 221 -10
23 -18 45 -18 48 0 4 -6 21 -14 38 -7 18 -26 66 -41 107 -16 41 -32 79 -37 85
-4 5 -8 16 -8 25 -1 8 -9 33 -20 55 -11 22 -19 44 -20 48 0 5 -6 23 -14 40 -7
18 -26 66 -42 107 -30 78 -46 104 -59 92 -5 -4 -5 -2 -2 4 8 15 -48 78 -62 70
-6 -4 -9 -1 -6 6 3 8 -13 31 -36 53 -23 22 -38 34 -34 26 6 -10 4 -12 -4 -7
-7 5 -10 14 -7 22 3 9 0 11 -11 7 -10 -4 -14 -2 -9 5 9 15 -82 112 -99 106 -9
-4 -12 0 -8 14 6 25 -13 38 -21 15 -8 -20 39 -70 47 -50 3 7 6 8 6 2 0 -5 -3
-16 -8 -24 -7 -11 -21 -1 -64 42 -30 31 -67 71 -82 89 -22 26 -29 29 -37 17
-8 -11 -9 -11 -5 3 6 16 -19 34 -25 18 -2 -5 -12 -2 -22 6 -18 13 -16 14 26
14 44 0 49 -3 94 -55 31 -37 50 -53 57 -46 12 12 -8 41 -29 41 -8 0 -13 5 -12
12 2 7 -3 12 -9 13 -7 0 -12 3 -10 6 1 3 -4 13 -12 22 -11 14 -36 17 -162 17
-82 0 -149 4 -149 9 0 12 47 61 60 61 6 0 8 5 5 10 -3 6 1 10 9 10 8 0 18 5
22 12 5 7 3 8 -6 3 -9 -5 -11 -4 -6 4 4 6 13 10 20 9 11 -3 64 40 172 138 13
12 20 25 16 29 -4 5 -2 5 5 1 14 -8 63 39 63 60 0 8 5 12 10 9 6 -3 10 -2 10
4 0 5 3 18 6 28 5 16 5 17 -6 1 -14 -23 -44 -13 -31 11 8 13 3 18 -21 27 -18
6 -36 19 -42 30 -6 10 -18 24 -26 30 -8 7 -28 24 -45 38 -23 20 -31 23 -33 11
-4 -19 -84 -15 -90 5 -3 8 1 11 9 8 8 -3 24 2 37 12 l21 18 -25 27 c-13 15
-32 38 -41 51 -8 13 -21 24 -29 24 -7 0 -16 11 -20 25 -3 14 -10 25 -14 25 -9
0 -67 58 -145 143 -27 30 -53 53 -57 51 -4 -2 -9 5 -13 16 -3 11 -13 20 -21
20 -8 0 -14 4 -14 9 0 12 -197 211 -209 211 -4 0 -14 11 -21 25 -7 13 -22 27
-32 31 -11 3 -23 17 -28 30 -5 13 -14 24 -20 24 -14 0 -40 25 -40 39 0 5 -9
13 -20 16 -11 4 -18 11 -15 16 4 5 1 9 -4 9 -14 0 -165 151 -174 174 -5 13
-11 15 -27 6 -11 -6 -20 -16 -20 -23 0 -7 -8 -2 -18 10 -16 20 -18 20 -32 5z
m5 -52 c3 -5 1 -10 -4 -10 -6 0 -11 5 -11 10 0 6 2 10 4 10 3 0 8 -4 11 -10z
m105 -21 c0 -5 -4 -9 -8 -9 -5 0 -9 7 -9 15 0 8 4 12 9 9 4 -3 8 -9 8 -15z
m40 -39 c0 -5 -2 -10 -4 -10 -3 0 -8 5 -11 10 -3 6 -1 10 4 10 6 0 11 -4 11
-10z m840 -930 c0 -5 -2 -10 -4 -10 -3 0 -8 5 -11 10 -3 6 -1 10 4 10 6 0 11
-4 11 -10z m44 4 c25 -9 19 -24 -9 -24 -16 0 -25 6 -25 15 0 16 9 19 34 9z
m-44 -44 c0 -5 -7 -10 -15 -10 -8 0 -15 5 -15 10 0 6 7 10 15 10 8 0 15 -4 15
-10z m404 -737 c47 -48 57 -67 31 -57 -8 4 -15 10 -15 14 0 5 -18 27 -40 49
-23 23 -36 41 -31 41 5 0 30 -21 55 -47z m72 -62 c-3 -5 1 -14 9 -21 16 -13
11 -30 -7 -30 -6 0 -8 3 -5 7 4 3 2 12 -4 19 -10 12 -5 34 7 34 3 0 3 -4 0 -9z
m65 -67 c2 2 5 -8 6 -22 1 -24 0 -25 -12 -9 -6 9 -17 17 -24 17 -12 0 -15 13
-4 23 3 4 11 2 18 -3 7 -5 14 -8 16 -6z"/>
<path d="M4583 4650 c0 -36 2 -50 4 -32 2 17 2 47 0 65 -2 17 -4 3 -4 -33z"/>
<path d="M3256 4639 c-4 -28 -5 -53 -3 -56 3 -2 8 19 12 47 4 28 5 53 2 56 -2
3 -7 -19 -11 -47z"/>
<path d="M5872 4560 c0 -14 2 -19 5 -12 2 6 2 18 0 25 -3 6 -5 1 -5 -13z"/>
<path d="M3533 4523 c-1 -33 0 -35 8 -15 5 13 5 30 1 38 -5 9 -8 1 -9 -23z"/>
<path d="M3232 4525 c0 -16 2 -22 5 -12 2 9 2 23 0 30 -3 6 -5 -1 -5 -18z"/>
<path d="M4574 4425 c0 -71 1 -99 3 -62 2 37 2 96 0 130 -2 34 -3 4 -3 -68z"/>
<path d="M3482 4495 c0 -16 2 -22 5 -12 2 9 2 23 0 30 -3 6 -5 -1 -5 -18z"/>
<path d="M3223 4415 c0 -33 2 -45 4 -27 2 18 2 45 0 60 -2 15 -4 0 -4 -33z"/>
<path d="M3473 4415 c0 -27 2 -38 4 -22 2 15 2 37 0 50 -2 12 -4 0 -4 -28z"/>
<path d="M5843 4365 c0 -27 2 -38 4 -22 2 15 2 37 0 50 -2 12 -4 0 -4 -28z"/>
<path d="M3213 4295 c0 -27 2 -38 4 -22 2 15 2 37 0 50 -2 12 -4 0 -4 -28z"/>
<path d="M3450 4295 c0 -27 2 -46 5 -43 8 8 9 77 2 85 -4 3 -7 -15 -7 -42z"/>
<path d="M5832 4230 c0 -14 2 -19 5 -12 2 6 2 18 0 25 -3 6 -5 1 -5 -13z"/>
<path d="M3443 4170 c0 -36 2 -50 4 -32 2 17 2 47 0 65 -2 17 -4 3 -4 -33z"/>
<path d="M3185 4100 c-4 -67 -5 -124 -2 -126 3 -3 8 49 12 116 4 67 5 123 2
126 -2 3 -8 -50 -12 -116z"/>
<path d="M4668 4183 c17 -2 47 -2 65 0 17 2 3 4 -33 4 -36 0 -50 -2 -32 -4z"/>
<path d="M5013 4183 c31 -2 83 -2 115 0 31 2 5 3 -58 3 -63 0 -89 -1 -57 -3z"/>
<path d="M3428 4070 c-3 -16 -1 -35 4 -42 4 -8 8 4 8 30 0 49 -6 55 -12 12z"/>
<path d="M3413 3925 c0 -27 2 -38 4 -22 2 15 2 37 0 50 -2 12 -4 0 -4 -28z"/>
<path d="M3168 3934 c-5 -4 -8 -23 -7 -43 0 -34 1 -34 10 -11 11 27 8 66 -3
54z"/>
<path d="M3403 3825 c0 -27 2 -38 4 -22 2 15 2 37 0 50 -2 12 -4 0 -4 -28z"/>
<path d="M3152 3780 c0 -19 2 -27 5 -17 2 9 2 25 0 35 -3 9 -5 1 -5 -18z"/>
<path d="M3383 3685 c0 -22 2 -30 4 -17 2 12 2 30 0 40 -3 9 -5 -1 -4 -23z"/>
<path d="M3336 3565 c-9 -26 -7 -32 5 -12 6 10 9 21 6 23 -2 3 -7 -2 -11 -11z"/>
<path d="M3315 3510 c3 -5 8 -10 11 -10 2 0 4 5 4 10 0 6 -5 10 -11 10 -5 0
-7 -4 -4 -10z"/>
<path d="M3294 3470 c-4 -16 -10 -27 -15 -24 -5 3 -9 1 -9 -5 0 -5 -3 -18 -7
-28 -4 -12 2 -9 21 10 14 16 24 33 21 38 -3 5 1 6 11 2 14 -5 15 -3 5 15 -16
29 -20 28 -27 -8z"/>
<path d="M5143 3443 c42 -2 112 -2 155 0 42 1 7 3 -78 3 -85 0 -120 -2 -77 -3z"/>
<path d="M5028 3423 c7 -3 16 -2 19 1 4 3 -2 6 -13 5 -11 0 -14 -3 -6 -6z"/>
<path d="M5398 3423 c7 -3 16 -2 19 1 4 3 -2 6 -13 5 -11 0 -14 -3 -6 -6z"/>
<path d="M4968 3413 c6 -2 18 -2 25 0 6 3 1 5 -13 5 -14 0 -19 -2 -12 -5z"/>
<path d="M5438 3413 c6 -2 18 -2 25 0 6 3 1 5 -13 5 -14 0 -19 -2 -12 -5z"/>
<path d="M4875 3380 c-13 -5 -14 -9 -5 -9 8 0 24 4 35 9 13 5 14 9 5 9 -8 0
-24 -4 -35 -9z"/>
<path d="M4801 3343 c-15 -17 -11 -16 30 2 31 13 31 14 8 13 -14 -1 -31 -8
-38 -15z"/>
<path d="M5656 3308 c3 -5 10 -6 15 -3 13 9 11 12 -6 12 -8 0 -12 -4 -9 -9z"/>
<path d="M4673 3258 c3 -9 1 -19 -6 -22 -9 -3 -9 -5 0 -5 18 -1 23 13 11 29
-8 12 -9 12 -5 -2z"/>
<path d="M5735 3251 c-3 -5 -2 -12 3 -15 5 -3 9 1 9 9 0 17 -3 19 -12 6z"/>
<path d="M5861 3093 c7 -10 14 -19 15 -21 1 -2 4 4 8 13 3 9 2 13 -4 10 -6 -3
-10 -1 -10 4 0 6 -5 11 -11 11 -8 0 -7 -6 2 -17z"/>
<path d="M4536 3063 c-6 -14 -5 -15 5 -6 7 7 10 15 7 18 -3 3 -9 -2 -12 -12z"/>
<path d="M3587 3034 c-9 -10 10 -41 30 -48 14 -6 12 -2 -5 14 -12 12 -20 25
-17 31 7 10 2 12 -8 3z"/>
<path d="M5901 3035 c1 -19 18 -51 18 -35 0 8 -4 22 -9 30 -5 8 -9 11 -9 5z"/>
<path d="M3657 2963 c-4 -3 -7 -11 -7 -17 0 -6 5 -5 12 2 6 6 9 14 7 17 -3 3
-9 2 -12 -2z"/>
<path d="M5941 2934 c0 -11 3 -14 6 -6 3 7 2 16 -1 19 -3 4 -6 -2 -5 -13z"/>
<path d="M4471 2924 c0 -11 3 -14 6 -6 3 7 2 16 -1 19 -3 4 -6 -2 -5 -13z"/>
<path d="M3684 2905 c3 -11 8 -32 12 -47 3 -16 9 -28 13 -28 4 0 13 -22 20
-50 7 -27 17 -52 22 -56 5 -3 9 -12 9 -21 0 -8 6 -29 14 -46 7 -18 30 -77 51
-132 21 -55 46 -118 56 -141 11 -22 19 -45 19 -50 1 -5 9 -27 20 -49 11 -22
19 -46 20 -53 0 -7 8 -32 18 -55 30 -69 50 -120 57 -146 12 -39 45 -72 65 -61
12 6 17 5 17 -5 0 -8 -5 -11 -10 -8 -6 3 -7 1 -3 -5 4 -7 13 -12 21 -12 7 0
16 -7 19 -16 3 -9 12 -14 19 -11 13 5 39 -17 31 -26 -3 -3 5 -8 18 -13 12 -4
29 -14 36 -23 11 -13 12 -13 7 -1 -6 13 -5 13 7 0 7 -9 24 -21 38 -28 14 -7
17 -10 7 -7 -10 3 -15 1 -12 -5 3 -6 13 -10 21 -10 8 0 14 -4 14 -10 0 -5 7
-6 17 -3 12 5 14 3 8 -7 -5 -8 -4 -11 3 -6 5 3 19 -6 30 -20 14 -20 21 -24 27
-14 6 9 4 11 -6 5 -11 -6 -11 -5 -2 5 15 16 34 4 27 -18 -5 -14 -3 -14 10 2
12 15 16 16 16 5 0 -8 -5 -20 -11 -26 -9 -9 -5 -14 14 -18 14 -4 28 -13 31
-22 3 -8 10 -11 16 -8 5 3 10 1 10 -4 0 -6 7 -11 16 -11 8 0 12 -4 9 -10 -4
-6 1 -7 11 -3 11 4 15 2 11 -4 -4 -6 2 -22 13 -36 11 -14 20 -29 20 -34 1 -4
9 -26 20 -48 11 -22 19 -44 20 -48 0 -9 53 -133 86 -200 8 -16 14 -34 14 -40
0 -6 9 -29 19 -51 34 -73 61 -135 61 -141 0 -4 7 -23 16 -43 9 -21 25 -55 34
-77 10 -22 28 -65 40 -95 52 -130 50 -127 105 -134 147 -20 738 -26 720 -8 -3
3 -51 7 -107 9 -57 3 -119 8 -138 13 l-35 8 40 2 c22 1 60 3 85 5 25 2 57 4
73 4 15 0 30 7 33 14 4 11 15 12 44 7 21 -4 39 -4 38 -1 -3 26 5 40 25 43 20
3 16 9 -37 60 -40 38 -64 54 -75 50 -14 -5 -14 -3 -2 11 11 15 10 18 -12 26
-14 6 -33 24 -43 40 -10 17 -26 33 -35 36 -9 3 -19 15 -22 27 -6 20 -7 19 -33
-8 -26 -29 -26 -29 -11 -2 14 23 14 28 2 38 -8 7 -15 18 -15 25 0 6 -11 18
-25 25 -14 7 -25 19 -25 27 0 7 -4 13 -8 13 -14 0 -52 36 -52 49 0 6 -5 11
-11 11 -5 0 -8 4 -5 9 3 5 -5 12 -19 15 -14 4 -24 10 -22 14 3 9 -91 102 -104
102 -5 0 -8 3 -7 8 2 4 -17 26 -42 49 -75 70 -102 91 -114 89 -6 -2 -8 -1 -3
1 13 8 -34 65 -49 59 -9 -3 -14 1 -14 12 0 9 -33 49 -73 89 -39 39 -89 90
-109 112 -21 23 -40 41 -43 41 -3 0 -32 27 -63 60 -32 33 -66 60 -75 60 -9 0
-17 7 -17 15 0 8 -4 15 -10 15 -5 0 -10 6 -10 14 0 8 -8 13 -17 12 -11 0 -17
6 -17 16 1 10 -27 47 -62 84 -35 36 -64 70 -64 75 0 5 -3 8 -7 7 -9 -3 -143
125 -143 135 0 10 -33 47 -41 47 -9 0 -61 53 -159 160 -41 45 -85 86 -97 91
-13 5 -23 15 -23 24 0 8 -3 15 -7 15 -11 1 -93 75 -93 84 0 12 -27 36 -40 36
-7 0 -10 6 -7 14 3 8 -8 19 -29 30 -23 10 -33 21 -28 29 4 6 4 9 -1 5 -11 -11
-36 12 -28 25 4 6 1 7 -7 2 -10 -6 -12 -3 -7 14 3 13 3 20 0 17 -3 -3 -12 2
-20 12 -13 16 -14 16 -9 -3z m526 -775 c0 -5 -4 -10 -10 -10 -5 0 -10 5 -10
10 0 6 5 10 10 10 6 0 10 -4 10 -10z m290 -170 c0 -5 -2 -10 -4 -10 -3 0 -8 5
-11 10 -3 6 -1 10 4 10 6 0 11 -4 11 -10z m67 -27 c-1 -14 -8 -28 -15 -31 -13
-4 -12 24 1 46 12 19 16 15 14 -15z m-37 -23 c0 -5 -4 -10 -10 -10 -5 0 -10 5
-10 10 0 6 5 10 10 10 6 0 10 -4 10 -10z m130 -24 c0 -3 -4 -8 -10 -11 -5 -3
-10 -1 -10 4 0 6 5 11 10 11 6 0 10 -2 10 -4z m80 -86 c0 -5 -4 -10 -10 -10
-5 0 -10 5 -10 10 0 6 5 10 10 10 6 0 10 -4 10 -10z m-355 -20 c3 -5 1 -10 -4
-10 -6 0 -11 5 -11 10 0 6 2 10 4 10 3 0 8 -4 11 -10z m332 -16 c-3 -4 -14 -3
-24 0 -15 6 -15 8 -3 16 16 10 39 -4 27 -16z m-250 -46 c-3 -8 -6 -5 -6 6 -1
11 2 17 5 13 3 -3 4 -12 1 -19z m53 -28 c8 -5 9 -10 2 -14 -13 -8 -44 23 -36
36 4 7 9 6 14 -2 4 -7 13 -16 20 -20z m30 -30 c0 -5 -2 -10 -4 -10 -3 0 -8 5
-11 10 -3 6 -1 10 4 10 6 0 11 -4 11 -10z m417 -90 c0 -28 -2 -29 -15 -16 -13
12 -13 18 -2 30 17 21 17 21 17 -14z m56 -47 c-4 -10 -12 -24 -19 -31 -10 -10
-12 -8 -11 10 1 22 13 38 29 38 4 0 4 -8 1 -17z m-53 -3 c0 -5 -7 -10 -15 -10
-8 0 -15 5 -15 10 0 6 7 10 15 10 8 0 15 -4 15 -10z m90 -65 c-14 -16 -60 -21
-60 -6 0 6 15 12 33 14 17 2 34 5 36 5 2 1 -2 -5 -9 -13z m-43 -351 c-3 -3
-12 -4 -19 -1 -8 3 -5 6 6 6 11 1 17 -2 13 -5z m523 -165 c16 -30 8 -31 -13
-3 -10 13 -13 24 -8 24 6 0 15 -9 21 -21z m48 -41 c16 -16 15 -28 -2 -28 -17
0 -38 24 -29 33 9 10 17 9 31 -5z m-28 -68 c0 -5 -4 -10 -10 -10 -5 0 -10 5
-10 10 0 6 5 10 10 10 6 0 10 -4 10 -10z m-225 -50 c3 -5 -1 -10 -9 -10 -9 0
-16 5 -16 10 0 6 4 10 9 10 6 0 13 -4 16 -10z m213 -2 c-7 -19 -38 -22 -38 -4
0 10 9 16 21 16 12 0 19 -5 17 -12z m171 -4 c12 -11 -14 -17 -59 -13 -8 1 -19
0 -25 -1 -23 -5 -65 1 -65 9 0 17 132 21 149 5z m-319 -75 c0 -11 -12 -11 -35
-3 -12 5 -14 9 -4 14 14 9 39 2 39 -11z"/>
<path d="M5951 2894 c0 -11 3 -14 6 -6 3 7 2 16 -1 19 -3 4 -6 -2 -5 -13z"/>
<path d="M5972 2835 c0 -16 2 -22 5 -12 2 9 2 23 0 30 -3 6 -5 -1 -5 -18z"/>
<path d="M4442 2810 c0 -19 2 -27 5 -17 2 9 2 25 0 35 -3 9 -5 1 -5 -18z"/>
<path d="M5983 2755 c0 -27 2 -38 4 -22 2 15 2 37 0 50 -2 12 -4 0 -4 -28z"/>
<path d="M4431 2679 c0 -46 4 -104 8 -129 5 -27 6 5 3 80 -6 144 -12 173 -11
49z"/>
<path d="M5983 2585 c0 -33 2 -45 4 -27 2 18 2 45 0 60 -2 15 -4 0 -4 -33z"/>
<path d="M5972 2485 c0 -16 2 -22 5 -12 2 9 2 23 0 30 -3 6 -5 -1 -5 -18z"/>
<path d="M4461 2474 c0 -11 3 -14 6 -6 3 7 2 16 -1 19 -3 4 -6 -2 -5 -13z"/>
<path d="M5951 2434 c0 -11 3 -14 6 -6 3 7 2 16 -1 19 -3 4 -6 -2 -5 -13z"/>
<path d="M4471 2424 c0 -11 3 -14 6 -6 3 7 2 16 -1 19 -3 4 -6 -2 -5 -13z"/>
<path d="M5875 2269 c-4 -6 -5 -12 -2 -15 2 -3 7 2 10 11 7 17 1 20 -8 4z"/>
<path d="M5845 2229 c-11 -16 -1 -19 13 -3 7 8 8 14 3 14 -5 0 -13 -5 -16 -11z"/>
<path d="M5008 1913 c7 -3 16 -2 19 1 4 3 -2 6 -13 5 -11 0 -14 -3 -6 -6z"/>
<path d="M5073 1903 c9 -2 23 -2 30 0 6 3 -1 5 -18 5 -16 0 -22 -2 -12 -5z"/>
<path d="M5338 1903 c6 -2 18 -2 25 0 6 3 1 5 -13 5 -14 0 -19 -2 -12 -5z"/>
<path d="M8225 1740 c-3 -6 1 -7 9 -4 18 7 21 14 7 14 -6 0 -13 -4 -16 -10z"/>
<path d="M7964 1542 c3 -5 0 -13 -6 -15 -9 -4 -10 -6 -1 -6 17 -1 25 16 12 25
-7 4 -9 3 -5 -4z"/>
<path d="M7906 1498 c5 -8 1 -9 -12 -4 -14 5 -16 4 -7 -5 6 -6 16 -8 22 -5 14
9 14 26 0 26 -5 0 -7 -5 -3 -12z"/>
<path d="M7851 1476 c-9 -10 -9 -16 -1 -21 17 -10 37 12 24 25 -8 8 -15 6 -23
-4z"/>
<path d="M7820 1453 c0 -4 -13 -14 -30 -21 -32 -14 -40 -32 -16 -32 21 0 69
47 56 55 -5 3 -10 3 -10 -2z"/>
<path d="M7740 1391 c0 -5 -16 -15 -35 -21 -19 -6 -33 -16 -30 -21 8 -13 21
-11 37 4 7 7 21 18 32 24 12 7 15 13 7 17 -6 4 -11 3 -11 -3z"/>
<path d="M7626 1331 c-3 -5 1 -11 9 -14 9 -4 12 -1 8 9 -6 16 -10 17 -17 5z"/>
<path d="M7600 1312 c0 -5 -16 -14 -35 -21 -19 -7 -35 -16 -35 -21 0 -4 -11
-11 -25 -14 -14 -4 -23 -10 -21 -15 3 -5 -8 -11 -25 -15 -17 -3 -28 -10 -24
-16 3 -5 -2 -10 -11 -10 -10 0 -15 -3 -11 -6 9 -10 48 7 41 17 -3 6 0 9 7 8
17 -3 69 21 69 32 0 4 12 10 27 14 14 3 37 14 50 25 18 14 20 19 8 24 -8 3
-15 2 -15 -2z"/>
<path d="M7355 1170 c3 -6 -2 -10 -12 -11 -10 0 -13 -3 -6 -5 7 -3 20 -1 29 4
15 8 15 9 0 15 -10 4 -15 3 -11 -3z"/>
<path d="M7290 1130 c-13 -9 -13 -10 0 -10 8 0 22 5 30 10 13 9 13 10 0 10 -8
0 -22 -5 -30 -10z"/>
<path d="M7246 1108 c5 -8 2 -9 -9 -5 -10 4 -17 2 -17 -4 0 -7 -9 -9 -21 -6
-15 4 -19 3 -11 -5 13 -13 85 9 77 23 -4 5 -11 9 -16 9 -6 0 -7 -5 -3 -12z"/>
<path d="M7145 1060 c-13 -6 -15 -9 -5 -9 8 0 22 4 30 9 18 12 2 12 -25 0z"/>
<path d="M7104 1040 c-6 -6 -25 -12 -42 -13 -17 -1 -28 -5 -24 -9 10 -10 82
10 82 22 0 13 -4 12 -16 0z"/>
<path d="M6880 950 c-20 -6 -21 -8 -5 -8 11 0 29 3 40 8 25 11 -1 11 -35 0z"/>
<path d="M6788 913 c6 -2 18 -2 25 0 6 3 1 5 -13 5 -14 0 -19 -2 -12 -5z"/>
<path d="M6680 880 c-20 -6 -21 -8 -5 -8 11 0 29 3 40 8 25 11 -1 11 -35 0z"/>
<path d="M6628 853 c7 -3 16 -2 19 1 4 3 -2 6 -13 5 -11 0 -14 -3 -6 -6z"/>
<path d="M6578 843 c7 -3 16 -2 19 1 4 3 -2 6 -13 5 -11 0 -14 -3 -6 -6z"/>
<path d="M6528 833 c6 -2 18 -2 25 0 6 3 1 5 -13 5 -14 0 -19 -2 -12 -5z"/>
<path d="M6478 813 c7 -3 16 -2 19 1 4 3 -2 6 -13 5 -11 0 -14 -3 -6 -6z"/>
<path d="M6423 803 c9 -2 23 -2 30 0 6 3 -1 5 -18 5 -16 0 -22 -2 -12 -5z"/>
<path d="M6313 773 c9 -2 23 -2 30 0 6 3 -1 5 -18 5 -16 0 -22 -2 -12 -5z"/>
<path d="M6258 763 c6 -2 18 -2 25 0 6 3 1 5 -13 5 -14 0 -19 -2 -12 -5z"/>
<path d="M5773 748 c2 -7 9 -13 15 -12 7 1 22 2 35 3 18 1 19 3 7 11 -22 14
-62 12 -57 -2z"/>
<path d="M6183 743 c9 -2 23 -2 30 0 6 3 -1 5 -18 5 -16 0 -22 -2 -12 -5z"/>
<path d="M6103 733 c9 -2 23 -2 30 0 6 3 -1 5 -18 5 -16 0 -22 -2 -12 -5z"/>
<path d="M5795 699 l-50 -6 60 0 c33 -1 87 3 120 7 l60 8 -70 -2 c-38 0 -92
-4 -120 -7z"/>
</g>
</svg>
